<?xml version="1.0" encoding="UTF-8" standalone="no"?>
<!-- Created with Inkscape (http://www.inkscape.org/) -->

<svg
   width="150mm"
   height="150mm"
   viewBox="0 0 150 150"
   version="1.1"
   id="svg8"
   inkscape:version="1.4 (86a8ad7, 2024-10-11)"
   sodipodi:docname="icon.svg"
   xmlns:inkscape="http://www.inkscape.org/namespaces/inkscape"
   xmlns:sodipodi="http://sodipodi.sourceforge.net/DTD/sodipodi-0.dtd"
   xmlns="http://www.w3.org/2000/svg"
   xmlns:svg="http://www.w3.org/2000/svg"
   xmlns:rdf="http://www.w3.org/1999/02/22-rdf-syntax-ns#"
   xmlns:cc="http://creativecommons.org/ns#"
   xmlns:dc="http://purl.org/dc/elements/1.1/">
  <defs
     id="defs2">
    <filter
       id="Blurx">
      <feGaussianBlur
         in="SourceGraphic"
         stdDeviation="0.4"
         id="feGaussianBlur2" />
    </filter>
  </defs>
  <sodipodi:namedview
     id="base"
     pagecolor="#ffffff"
     bordercolor="#666666"
     borderopacity="1.0"
     inkscape:pageopacity="0.0"
     inkscape:pageshadow="2"
     inkscape:zoom="0.24748737"
     inkscape:cx="876.81241"
     inkscape:cy="26.263966"
     inkscape:document-units="mm"
     inkscape:current-layer="layer1"
     showgrid="false"
     showguides="true"
     inkscape:guide-bbox="true"
     inkscape:window-width="1920"
     inkscape:window-height="1027"
     inkscape:window-x="1912"
     inkscape:window-y="-8"
     inkscape:window-maximized="1"
     inkscape:snap-global="false"
     inkscape:showpageshadow="2"
     inkscape:pagecheckerboard="0"
     inkscape:deskcolor="#d1d1d1">
    <sodipodi:guide
       position="19.315611,-27.686235"
       orientation="1,0"
       id="guide842"
       inkscape:locked="false" />
  </sodipodi:namedview>
  <metadata
     id="metadata5">
    <rdf:RDF>
      <cc:Work
         rdf:about="">
        <dc:format>image/svg+xml</dc:format>
        <dc:type
           rdf:resource="http://purl.org/dc/dcmitype/StillImage" />
      </cc:Work>
    </rdf:RDF>
  </metadata>
  <g
     inkscape:label="Layer 1"
     inkscape:groupmode="layer"
     id="layer1"
     transform="translate(-50.999772,-0.55379)">
    <g
       id="g1"
       transform="translate(-122.25249,277.96031)">
      <path
         style="color:#000000;font-style:normal;font-variant:normal;font-weight:normal;font-stretch:normal;font-size:medium;line-height:normal;font-family:sans-serif;font-variant-ligatures:normal;font-variant-position:normal;font-variant-caps:normal;font-variant-numeric:normal;font-variant-alternates:normal;font-feature-settings:normal;text-indent:0;text-align:start;text-decoration:none;text-decoration-line:none;text-decoration-style:solid;text-decoration-color:#000000;letter-spacing:normal;word-spacing:normal;text-transform:none;writing-mode:lr-tb;direction:ltr;text-orientation:mixed;dominant-baseline:auto;baseline-shift:baseline;text-anchor:start;white-space:normal;shape-padding:0;clip-rule:nonzero;display:inline;overflow:visible;visibility:visible;opacity:1;isolation:auto;mix-blend-mode:normal;color-interpolation:sRGB;color-interpolation-filters:linearRGB;solid-color:#000000;solid-opacity:1;vector-effect:none;fill:#ffffff;fill-opacity:1;fill-rule:nonzero;stroke:none;stroke-width:75.5906;stroke-linecap:butt;stroke-linejoin:miter;stroke-miterlimit:4;stroke-dasharray:none;stroke-dashoffset:0;stroke-opacity:1;color-rendering:auto;image-rendering:auto;shape-rendering:auto;text-rendering:auto;enable-background:accumulate"
         d="m 939.62109,-978.62305 c -1.74862,-0.0101 -3.49413,0.002 -5.23632,0.0352 -97.56314,1.86202 -184.47728,71.569 -204.19727,170.75 -20.08727,101.02831 35.94529,200.46813 128.38672,237.99219 l 19.46094,-73.95703 c -23.68793,-11.52473 -43.0332,-29.42238 -56.33204,-51.0918 h -27.42578 -33.16796 l 40.95312,-60.34961 c -0.97252,-12.34986 -0.28209,-25.05759 2.26172,-37.85156 10.21666,-51.38445 47.46146,-90.09198 94.125,-104.19141 l 54.83594,-80.81055 c -4.57153,-0.32373 -9.12825,-0.49923 -13.66407,-0.52539 z m 79.32811,15.93164 -18.6211,74.48829 c 27.0978,13.69384 48.3055,35.74835 61.0664,62.1621 h 54.7403 l -41.2305,58.58985 c 0.035,9.36205 -0.8802,18.87537 -2.8398,28.42773 -10.0521,48.9989 -44.7415,86.38675 -88.70122,101.65625 l -58.16601,82.65625 c 103.98063,6.42689 199.54533,-64.95829 220.91403,-169.12109 20.6836,-100.82262 -34.6209,-200.78361 -127.1621,-238.85938 z m -48.62108,22.08399 -25.58007,37.69531 c 6.03788,0.30595 12.13012,1.00279 18.24804,2.12891 z m -54.81054,308.80664 -6.625,39.1875 26.23437,-37.2832 c -6.47808,-0.16973 -13.02641,-0.79165 -19.60937,-1.9043 z m -13.4336,34.7207 -5.94531,22.5918 1.60742,-2.28516 z"
         transform="scale(0.26458333)"
         id="path850"
         inkscape:export-xdpi="5.4468098"
         inkscape:export-ydpi="5.4468098" />
      <path
         id="path856"
         d="m 210.15242,-188.50652 h 31.75 l -15.875,60.325 60.325,-85.725 h -31.75 l 15.875,-63.5"
         style="fill:#eecc00;stroke-width:3.175"
         inkscape:connector-curvature="0"
         inkscape:export-xdpi="5.4468098"
         inkscape:export-ydpi="5.4468098" />
    </g>
  </g>
</svg>
